<svg width="43" height="43" viewBox="0 0 43 43" fill="none" xmlns="http://www.w3.org/2000/svg">
<g id="briefcase icon">
<path id="Vector" d="M35.8325 12.5412H7.16585C5.18683 12.5412 3.58252 14.1455 3.58252 16.1246V34.0412C3.58252 36.0203 5.18683 37.6246 7.16585 37.6246H35.8325C37.8115 37.6246 39.4159 36.0203 39.4159 34.0412V16.1246C39.4159 14.1455 37.8115 12.5412 35.8325 12.5412Z" fill="#B4DDD5" stroke="#8FD1C4" stroke-width="3.58333" stroke-linecap="round" stroke-linejoin="round"/>
<path id="Vector_2" d="M28.6659 37.625V8.95833C28.6659 8.00797 28.2883 7.09654 27.6163 6.42453C26.9443 5.75253 26.0329 5.375 25.0825 5.375H17.9159C16.9655 5.375 16.0541 5.75253 15.3821 6.42453C14.71 7.09654 14.3325 8.00797 14.3325 8.95833V37.625" stroke="#8FD1C4" stroke-width="3.58333" stroke-linecap="round" stroke-linejoin="round"/>
</g>
</svg>
