<svg width="43" height="43" viewBox="0 0 43 43" fill="none" xmlns="http://www.w3.org/2000/svg">
<path d="M35.832 12.541H7.16536C5.18634 12.541 3.58203 14.1453 3.58203 16.1243V34.041C3.58203 36.02 5.18634 37.6243 7.16536 37.6243H35.832C37.8111 37.6243 39.4154 36.02 39.4154 34.041V16.1243C39.4154 14.1453 37.8111 12.541 35.832 12.541Z" fill="#B4DDD5" stroke="#8FD1C4" stroke-width="3.58333" stroke-linecap="round" stroke-linejoin="round"/>
<path d="M28.6654 37.625V8.95833C28.6654 8.00797 28.2878 7.09654 27.6158 6.42453C26.9438 5.75253 26.0324 5.375 25.082 5.375H17.9154C16.965 5.375 16.0536 5.75253 15.3816 6.42453C14.7096 7.09654 14.332 8.00797 14.332 8.95833V37.625" stroke="#8FD1C4" stroke-width="3.58333" stroke-linecap="round" stroke-linejoin="round"/>
</svg>
