<svg width="44" height="44" viewBox="0 0 44 44" fill="none" xmlns="http://www.w3.org/2000/svg">
<rect width="44" height="44" fill="#EDEDED"/>
<g id="DESIGN SYSTEM">
<path d="M-3662 -2294C-3662 -2295.1 -3661.1 -2296 -3660 -2296H4023C4024.1 -2296 4025 -2295.1 4025 -2294V5397C4025 5398.1 4024.1 5399 4023 5399H-3660C-3661.1 5399 -3662 5398.1 -3662 5397V-2294Z" fill="#404040"/>
<path d="M-3660 -2295H4023V-2297H-3660V-2295ZM4024 -2294V5397H4026V-2294H4024ZM4023 5398H-3660V5400H4023V5398ZM-3661 5397V-2294H-3663V5397H-3661ZM-3660 5398C-3660.55 5398 -3661 5397.55 -3661 5397H-3663C-3663 5398.66 -3661.66 5400 -3660 5400V5398ZM4024 5397C4024 5397.55 4023.55 5398 4023 5398V5400C4024.66 5400 4026 5398.66 4026 5397H4024ZM4023 -2295C4023.55 -2295 4024 -2294.55 4024 -2294H4026C4026 -2295.66 4024.66 -2297 4023 -2297V-2295ZM-3660 -2297C-3661.66 -2297 -3663 -2295.66 -3663 -2294H-3661C-3661 -2294.55 -3660.55 -2295 -3660 -2295V-2297Z" fill="black" fill-opacity="0.1"/>
<g id="COMPONENTS">
<path d="M-436 -2159.54C-436 -2160.9 -434.898 -2162 -433.539 -2162H3084.54C3085.9 -2162 3087 -2160.9 3087 -2159.54V245.539C3087 246.898 3085.9 248 3084.54 248H-433.539C-434.898 248 -436 246.898 -436 245.539V-2159.54Z" fill="#F4F4F4"/>
<path d="M-433.539 -2160.77H3084.54V-2163.23H-433.539V-2160.77ZM3085.77 -2159.54V245.539H3088.23V-2159.54H3085.77ZM3084.54 246.77H-433.539V249.23H3084.54V246.77ZM-434.77 245.539V-2159.54H-437.23V245.539H-434.77ZM-433.539 246.77C-434.219 246.77 -434.77 246.219 -434.77 245.539H-437.23C-437.23 247.578 -435.578 249.23 -433.539 249.23V246.77ZM3085.77 245.539C3085.77 246.219 3085.22 246.77 3084.54 246.77V249.23C3086.58 249.23 3088.23 247.578 3088.23 245.539H3085.77ZM3084.54 -2160.77C3085.22 -2160.77 3085.77 -2160.22 3085.77 -2159.54H3088.23C3088.23 -2161.58 3086.58 -2163.23 3084.54 -2163.23V-2160.77ZM-433.539 -2163.23C-435.578 -2163.23 -437.23 -2161.58 -437.23 -2159.54H-434.77C-434.77 -2160.22 -434.219 -2160.77 -433.539 -2160.77V-2163.23Z" fill="white" fill-opacity="0.1"/>
<g id="calendar icon">
<path id="Vector" d="M34.8333 7.33398H9.16667C7.14162 7.33398 5.5 8.97561 5.5 11.0007V36.6673C5.5 38.6924 7.14162 40.334 9.16667 40.334H34.8333C36.8584 40.334 38.5 38.6924 38.5 36.6673V11.0007C38.5 8.97561 36.8584 7.33398 34.8333 7.33398Z" fill="#B4DDD5" stroke="#8FD1C4" stroke-width="3.66667" stroke-linecap="round" stroke-linejoin="round"/>
<path id="Vector_2" d="M29.334 3.66602V10.9993" stroke="#8FD1C4" stroke-width="3.66667" stroke-linecap="round" stroke-linejoin="round"/>
<path id="Vector_3" d="M14.666 3.66602V10.9993" stroke="#8FD1C4" stroke-width="3.66667" stroke-linecap="round" stroke-linejoin="round"/>
<path id="Vector_4" d="M5.5 18.334H38.5" stroke="#8FD1C4" stroke-width="3.66667" stroke-linecap="round" stroke-linejoin="round"/>
</g>
</g>
</g>
</svg>
