<svg width="43" height="43" viewBox="0 0 43 43" fill="none" xmlns="http://www.w3.org/2000/svg">
<path d="M37.337 8.25895C36.4219 7.34341 35.3354 6.61715 34.1395 6.12164C32.9436 5.62613 31.6619 5.37109 30.3674 5.37109C29.073 5.37109 27.7912 5.62613 26.5953 6.12164C25.3995 6.61715 24.3129 7.34341 23.3978 8.25895L21.4987 10.1581L19.5995 8.25895C17.7511 6.4105 15.244 5.37205 12.6299 5.37205C10.0158 5.37205 7.50878 6.4105 5.66033 8.25895C3.81189 10.1074 2.77344 12.6144 2.77344 15.2285C2.77344 17.8426 3.81189 20.3497 5.66033 22.1981L7.5595 24.0973L21.4987 38.0364L35.4378 24.0973L37.337 22.1981C38.2525 21.283 38.9788 20.1965 39.4743 19.0006C39.9698 17.8048 40.2249 16.523 40.2249 15.2285C40.2249 13.9341 39.9698 12.6523 39.4743 11.4564C38.9788 10.2606 38.2525 9.17405 37.337 8.25895Z" fill="#FFEC9D" stroke="#FFD420" stroke-width="3.58333" stroke-linecap="round" stroke-linejoin="round"/>
</svg>
