<svg width="185" height="27" viewBox="0 0 185 27" fill="none" xmlns="http://www.w3.org/2000/svg">
<path d="M1.242 7.148H10.278V9.524H4.068V12.494H9.45V14.69H4.068V20H1.242V7.148ZM11.6419 10.694H14.0719V12.422H14.1079C14.2279 12.134 14.3899 11.87 14.5939 11.63C14.7979 11.378 15.0319 11.168 15.2959 11C15.5599 10.82 15.8419 10.682 16.1419 10.586C16.4419 10.49 16.7539 10.442 17.0779 10.442C17.2459 10.442 17.4319 10.472 17.6359 10.532V12.908C17.5159 12.884 17.3719 12.866 17.2039 12.854C17.0359 12.83 16.8739 12.818 16.7179 12.818C16.2499 12.818 15.8539 12.896 15.5299 13.052C15.2059 13.208 14.9419 13.424 14.7379 13.7C14.5459 13.964 14.4079 14.276 14.3239 14.636C14.2399 14.996 14.1979 15.386 14.1979 15.806V20H11.6419V10.694ZM21.266 9.254H18.71V7.148H21.266V9.254ZM18.71 10.694H21.266V20H18.71V10.694ZM29.5426 14.348C29.4226 13.7 29.2066 13.208 28.8946 12.872C28.5946 12.536 28.1326 12.368 27.5086 12.368C27.1006 12.368 26.7586 12.44 26.4826 12.584C26.2186 12.716 26.0026 12.884 25.8346 13.088C25.6786 13.292 25.5646 13.508 25.4926 13.736C25.4326 13.964 25.3966 14.168 25.3846 14.348H29.5426ZM25.3846 15.968C25.4206 16.796 25.6306 17.396 26.0146 17.768C26.3986 18.14 26.9506 18.326 27.6706 18.326C28.1866 18.326 28.6306 18.2 29.0026 17.948C29.3746 17.684 29.6026 17.408 29.6866 17.12H31.9366C31.5766 18.236 31.0246 19.034 30.2806 19.514C29.5366 19.994 28.6366 20.234 27.5806 20.234C26.8486 20.234 26.1886 20.12 25.6006 19.892C25.0126 19.652 24.5146 19.316 24.1066 18.884C23.6986 18.452 23.3806 17.936 23.1526 17.336C22.9366 16.736 22.8286 16.076 22.8286 15.356C22.8286 14.66 22.9426 14.012 23.1706 13.412C23.3986 12.812 23.7226 12.296 24.1426 11.864C24.5626 11.42 25.0606 11.072 25.6366 10.82C26.2246 10.568 26.8726 10.442 27.5806 10.442C28.3726 10.442 29.0626 10.598 29.6506 10.91C30.2386 11.21 30.7186 11.618 31.0906 12.134C31.4746 12.65 31.7506 13.238 31.9186 13.898C32.0866 14.558 32.1466 15.248 32.0986 15.968H25.3846ZM33.6146 10.694H36.0446V11.99H36.0986C36.4226 11.45 36.8426 11.06 37.3586 10.82C37.8746 10.568 38.4026 10.442 38.9426 10.442C39.6266 10.442 40.1846 10.538 40.6166 10.73C41.0606 10.91 41.4086 11.168 41.6606 11.504C41.9126 11.828 42.0866 12.23 42.1826 12.71C42.2906 13.178 42.3446 13.7 42.3446 14.276V20H39.7886V14.744C39.7886 13.976 39.6686 13.406 39.4286 13.034C39.1886 12.65 38.7626 12.458 38.1506 12.458C37.4546 12.458 36.9506 12.668 36.6386 13.088C36.3266 13.496 36.1706 14.174 36.1706 15.122V20H33.6146V10.694ZM50.8905 15.32C50.8905 14.936 50.8545 14.57 50.7825 14.222C50.7105 13.862 50.5845 13.55 50.4045 13.286C50.2365 13.01 50.0145 12.788 49.7385 12.62C49.4625 12.452 49.1145 12.368 48.6945 12.368C48.2745 12.368 47.9205 12.452 47.6325 12.62C47.3445 12.788 47.1105 13.01 46.9305 13.286C46.7625 13.562 46.6365 13.88 46.5525 14.24C46.4805 14.588 46.4445 14.954 46.4445 15.338C46.4445 15.698 46.4865 16.058 46.5705 16.418C46.6545 16.778 46.7865 17.102 46.9665 17.39C47.1585 17.666 47.3925 17.894 47.6685 18.074C47.9565 18.242 48.2985 18.326 48.6945 18.326C49.1145 18.326 49.4625 18.242 49.7385 18.074C50.0265 17.906 50.2545 17.684 50.4225 17.408C50.5905 17.12 50.7105 16.796 50.7825 16.436C50.8545 16.076 50.8905 15.704 50.8905 15.32ZM50.9265 18.812H50.8905C50.5905 19.316 50.1945 19.682 49.7025 19.91C49.2225 20.126 48.6765 20.234 48.0645 20.234C47.3685 20.234 46.7565 20.102 46.2285 19.838C45.7005 19.562 45.2625 19.196 44.9145 18.74C44.5785 18.272 44.3205 17.738 44.1405 17.138C43.9725 16.538 43.8885 15.914 43.8885 15.266C43.8885 14.642 43.9725 14.042 44.1405 13.466C44.3205 12.878 44.5785 12.362 44.9145 11.918C45.2625 11.474 45.6945 11.12 46.2105 10.856C46.7265 10.58 47.3265 10.442 48.0105 10.442C48.5625 10.442 49.0845 10.562 49.5765 10.802C50.0805 11.03 50.4765 11.372 50.7645 11.828H50.8005V7.148H53.3565V20H50.9265V18.812ZM57.2684 16.976C57.2684 17.252 57.3224 17.492 57.4304 17.696C57.5504 17.888 57.7004 18.05 57.8804 18.182C58.0604 18.302 58.2644 18.392 58.4924 18.452C58.7324 18.512 58.9784 18.542 59.2304 18.542C59.4104 18.542 59.5964 18.524 59.7884 18.488C59.9924 18.44 60.1724 18.374 60.3284 18.29C60.4964 18.194 60.6344 18.074 60.7424 17.93C60.8504 17.774 60.9044 17.582 60.9044 17.354C60.9044 16.97 60.6464 16.682 60.1304 16.49C59.6264 16.298 58.9184 16.106 58.0064 15.914C57.6344 15.83 57.2684 15.734 56.9084 15.626C56.5604 15.506 56.2484 15.356 55.9724 15.176C55.6964 14.984 55.4744 14.75 55.3064 14.474C55.1384 14.186 55.0544 13.838 55.0544 13.43C55.0544 12.83 55.1684 12.338 55.3964 11.954C55.6364 11.57 55.9484 11.27 56.3324 11.054C56.7164 10.826 57.1484 10.67 57.6284 10.586C58.1084 10.49 58.6004 10.442 59.1044 10.442C59.6084 10.442 60.0944 10.49 60.5624 10.586C61.0424 10.682 61.4684 10.844 61.8404 11.072C62.2124 11.3 62.5184 11.606 62.7584 11.99C63.0104 12.362 63.1604 12.836 63.2084 13.412H60.7784C60.7424 12.92 60.5564 12.59 60.2204 12.422C59.8844 12.242 59.4884 12.152 59.0324 12.152C58.8884 12.152 58.7324 12.164 58.5644 12.188C58.3964 12.2 58.2404 12.236 58.0964 12.296C57.9644 12.356 57.8504 12.446 57.7544 12.566C57.6584 12.674 57.6104 12.824 57.6104 13.016C57.6104 13.244 57.6944 13.43 57.8624 13.574C58.0304 13.718 58.2464 13.838 58.5104 13.934C58.7864 14.018 59.0984 14.096 59.4464 14.168C59.7944 14.24 60.1484 14.318 60.5084 14.402C60.8804 14.486 61.2404 14.588 61.5884 14.708C61.9484 14.828 62.2664 14.99 62.5424 15.194C62.8184 15.386 63.0404 15.632 63.2084 15.932C63.3764 16.22 63.4604 16.58 63.4604 17.012C63.4604 17.624 63.3344 18.14 63.0824 18.56C62.8424 18.968 62.5244 19.298 62.1284 19.55C61.7324 19.802 61.2764 19.976 60.7604 20.072C60.2564 20.18 59.7404 20.234 59.2124 20.234C58.6724 20.234 58.1444 20.18 57.6284 20.072C57.1124 19.964 56.6504 19.784 56.2424 19.532C55.8464 19.28 55.5164 18.95 55.2524 18.542C55.0004 18.122 54.8624 17.6 54.8384 16.976H57.2684ZM64.9564 7.148H67.5124V11.99H67.5664C67.8904 11.45 68.3044 11.06 68.8084 10.82C69.3124 10.568 69.8044 10.442 70.2844 10.442C70.9684 10.442 71.5264 10.538 71.9584 10.73C72.4024 10.91 72.7504 11.168 73.0024 11.504C73.2544 11.828 73.4284 12.23 73.5244 12.71C73.6324 13.178 73.6864 13.7 73.6864 14.276V20H71.1304V14.744C71.1304 13.976 71.0104 13.406 70.7704 13.034C70.5304 12.65 70.1044 12.458 69.4924 12.458C68.7964 12.458 68.2924 12.668 67.9804 13.088C67.6684 13.496 67.5124 14.174 67.5124 15.122V20H64.9564V7.148ZM78.2543 9.254H75.6983V7.148H78.2543V9.254ZM75.6983 10.694H78.2543V20H75.6983V10.694ZM84.9649 18.326C85.3849 18.326 85.7329 18.242 86.0089 18.074C86.2969 17.906 86.5249 17.69 86.6929 17.426C86.8729 17.15 86.9989 16.832 87.0709 16.472C87.1429 16.112 87.1789 15.746 87.1789 15.374C87.1789 15.002 87.1369 14.636 87.0529 14.276C86.9809 13.916 86.8549 13.598 86.6749 13.322C86.4949 13.034 86.2609 12.806 85.9729 12.638C85.6969 12.458 85.3549 12.368 84.9469 12.368C84.5269 12.368 84.1729 12.458 83.8849 12.638C83.6089 12.806 83.3809 13.028 83.2009 13.304C83.0329 13.58 82.9129 13.898 82.8409 14.258C82.7689 14.618 82.7329 14.99 82.7329 15.374C82.7329 15.746 82.7689 16.112 82.8409 16.472C82.9249 16.832 83.0509 17.15 83.2189 17.426C83.3989 17.69 83.6329 17.906 83.9209 18.074C84.2089 18.242 84.5569 18.326 84.9649 18.326ZM80.2669 10.694H82.6969V11.882H82.7329C83.0449 11.378 83.4409 11.012 83.9209 10.784C84.4009 10.556 84.9289 10.442 85.5049 10.442C86.2369 10.442 86.8669 10.58 87.3949 10.856C87.9229 11.132 88.3609 11.498 88.7089 11.954C89.0569 12.41 89.3149 12.944 89.4829 13.556C89.6509 14.156 89.7349 14.786 89.7349 15.446C89.7349 16.07 89.6509 16.67 89.4829 17.246C89.3149 17.822 89.0569 18.332 88.7089 18.776C88.3729 19.22 87.9469 19.574 87.4309 19.838C86.9269 20.102 86.3329 20.234 85.6489 20.234C85.0729 20.234 84.5389 20.12 84.0469 19.892C83.5669 19.652 83.1709 19.304 82.8589 18.848H82.8229V23.258H80.2669V10.694ZM107.459 15.14C107.459 16.88 106.973 18.176 106.001 19.028C105.029 19.868 103.685 20.288 101.969 20.288C100.229 20.288 98.8786 19.868 97.9186 19.028C96.9706 18.188 96.4966 16.892 96.4966 15.14V7.148H99.3226V15.14C99.3226 15.488 99.3526 15.83 99.4126 16.166C99.4726 16.502 99.5986 16.802 99.7906 17.066C99.9826 17.318 100.247 17.528 100.583 17.696C100.931 17.852 101.393 17.93 101.969 17.93C102.977 17.93 103.673 17.708 104.057 17.264C104.441 16.808 104.633 16.1 104.633 15.14V7.148H107.459V15.14ZM114.32 18.326C114.74 18.326 115.088 18.242 115.364 18.074C115.652 17.906 115.88 17.69 116.048 17.426C116.228 17.15 116.354 16.832 116.426 16.472C116.498 16.112 116.534 15.746 116.534 15.374C116.534 15.002 116.492 14.636 116.408 14.276C116.336 13.916 116.21 13.598 116.03 13.322C115.85 13.034 115.616 12.806 115.328 12.638C115.052 12.458 114.71 12.368 114.302 12.368C113.882 12.368 113.528 12.458 113.24 12.638C112.964 12.806 112.736 13.028 112.556 13.304C112.388 13.58 112.268 13.898 112.196 14.258C112.124 14.618 112.088 14.99 112.088 15.374C112.088 15.746 112.124 16.112 112.196 16.472C112.28 16.832 112.406 17.15 112.574 17.426C112.754 17.69 112.988 17.906 113.276 18.074C113.564 18.242 113.912 18.326 114.32 18.326ZM109.622 10.694H112.052V11.882H112.088C112.4 11.378 112.796 11.012 113.276 10.784C113.756 10.556 114.284 10.442 114.86 10.442C115.592 10.442 116.222 10.58 116.75 10.856C117.278 11.132 117.716 11.498 118.064 11.954C118.412 12.41 118.67 12.944 118.838 13.556C119.006 14.156 119.09 14.786 119.09 15.446C119.09 16.07 119.006 16.67 118.838 17.246C118.67 17.822 118.412 18.332 118.064 18.776C117.728 19.22 117.302 19.574 116.786 19.838C116.282 20.102 115.688 20.234 115.004 20.234C114.428 20.234 113.894 20.12 113.402 19.892C112.922 19.652 112.526 19.304 112.214 18.848H112.178V23.258H109.622V10.694ZM127.232 15.32C127.232 14.936 127.196 14.57 127.124 14.222C127.052 13.862 126.926 13.55 126.746 13.286C126.578 13.01 126.356 12.788 126.08 12.62C125.804 12.452 125.456 12.368 125.036 12.368C124.616 12.368 124.262 12.452 123.974 12.62C123.686 12.788 123.452 13.01 123.272 13.286C123.104 13.562 122.978 13.88 122.894 14.24C122.822 14.588 122.786 14.954 122.786 15.338C122.786 15.698 122.828 16.058 122.912 16.418C122.996 16.778 123.128 17.102 123.308 17.39C123.5 17.666 123.734 17.894 124.01 18.074C124.298 18.242 124.64 18.326 125.036 18.326C125.456 18.326 125.804 18.242 126.08 18.074C126.368 17.906 126.596 17.684 126.764 17.408C126.932 17.12 127.052 16.796 127.124 16.436C127.196 16.076 127.232 15.704 127.232 15.32ZM127.268 18.812H127.232C126.932 19.316 126.536 19.682 126.044 19.91C125.564 20.126 125.018 20.234 124.406 20.234C123.71 20.234 123.098 20.102 122.57 19.838C122.042 19.562 121.604 19.196 121.256 18.74C120.92 18.272 120.662 17.738 120.482 17.138C120.314 16.538 120.23 15.914 120.23 15.266C120.23 14.642 120.314 14.042 120.482 13.466C120.662 12.878 120.92 12.362 121.256 11.918C121.604 11.474 122.036 11.12 122.552 10.856C123.068 10.58 123.668 10.442 124.352 10.442C124.904 10.442 125.426 10.562 125.918 10.802C126.422 11.03 126.818 11.372 127.106 11.828H127.142V7.148H129.698V20H127.268V18.812ZM131.522 13.556C131.558 12.956 131.708 12.458 131.972 12.062C132.236 11.666 132.572 11.348 132.98 11.108C133.388 10.868 133.844 10.7 134.348 10.604C134.864 10.496 135.38 10.442 135.896 10.442C136.364 10.442 136.838 10.478 137.318 10.55C137.798 10.61 138.236 10.736 138.632 10.928C139.028 11.12 139.352 11.39 139.604 11.738C139.856 12.074 139.982 12.524 139.982 13.088V17.93C139.982 18.35 140.006 18.752 140.054 19.136C140.102 19.52 140.186 19.808 140.306 20H137.714C137.666 19.856 137.624 19.712 137.588 19.568C137.564 19.412 137.546 19.256 137.534 19.1C137.126 19.52 136.646 19.814 136.094 19.982C135.542 20.15 134.978 20.234 134.402 20.234C133.958 20.234 133.544 20.18 133.16 20.072C132.776 19.964 132.44 19.796 132.152 19.568C131.864 19.34 131.636 19.052 131.468 18.704C131.312 18.356 131.234 17.942 131.234 17.462C131.234 16.934 131.324 16.502 131.504 16.166C131.696 15.818 131.936 15.542 132.224 15.338C132.524 15.134 132.86 14.984 133.232 14.888C133.616 14.78 134 14.696 134.384 14.636C134.768 14.576 135.146 14.528 135.518 14.492C135.89 14.456 136.22 14.402 136.508 14.33C136.796 14.258 137.024 14.156 137.192 14.024C137.36 13.88 137.438 13.676 137.426 13.412C137.426 13.136 137.378 12.92 137.282 12.764C137.198 12.596 137.078 12.47 136.922 12.386C136.778 12.29 136.604 12.23 136.4 12.206C136.208 12.17 135.998 12.152 135.77 12.152C135.266 12.152 134.87 12.26 134.582 12.476C134.294 12.692 134.126 13.052 134.078 13.556H131.522ZM137.426 15.446C137.318 15.542 137.18 15.62 137.012 15.68C136.856 15.728 136.682 15.77 136.49 15.806C136.31 15.842 136.118 15.872 135.914 15.896C135.71 15.92 135.506 15.95 135.302 15.986C135.11 16.022 134.918 16.07 134.726 16.13C134.546 16.19 134.384 16.274 134.24 16.382C134.108 16.478 134 16.604 133.916 16.76C133.832 16.916 133.79 17.114 133.79 17.354C133.79 17.582 133.832 17.774 133.916 17.93C134 18.086 134.114 18.212 134.258 18.308C134.402 18.392 134.57 18.452 134.762 18.488C134.954 18.524 135.152 18.542 135.356 18.542C135.86 18.542 136.25 18.458 136.526 18.29C136.802 18.122 137.006 17.924 137.138 17.696C137.27 17.456 137.348 17.216 137.372 16.976C137.408 16.736 137.426 16.544 137.426 16.4V15.446ZM145.206 10.694H147.078V12.404H145.206V17.012C145.206 17.444 145.278 17.732 145.422 17.876C145.566 18.02 145.854 18.092 146.286 18.092C146.43 18.092 146.568 18.086 146.7 18.074C146.832 18.062 146.958 18.044 147.078 18.02V20C146.862 20.036 146.622 20.06 146.358 20.072C146.094 20.084 145.836 20.09 145.584 20.09C145.188 20.09 144.81 20.06 144.45 20C144.102 19.952 143.79 19.85 143.514 19.694C143.25 19.538 143.04 19.316 142.884 19.028C142.728 18.74 142.65 18.362 142.65 17.894V12.404H141.102V10.694H142.65V7.904H145.206V10.694ZM154.558 14.348C154.438 13.7 154.222 13.208 153.91 12.872C153.61 12.536 153.148 12.368 152.524 12.368C152.116 12.368 151.774 12.44 151.498 12.584C151.234 12.716 151.018 12.884 150.85 13.088C150.694 13.292 150.58 13.508 150.508 13.736C150.448 13.964 150.412 14.168 150.4 14.348H154.558ZM150.4 15.968C150.436 16.796 150.646 17.396 151.03 17.768C151.414 18.14 151.966 18.326 152.686 18.326C153.202 18.326 153.646 18.2 154.018 17.948C154.39 17.684 154.618 17.408 154.702 17.12H156.952C156.592 18.236 156.04 19.034 155.296 19.514C154.552 19.994 153.652 20.234 152.596 20.234C151.864 20.234 151.204 20.12 150.616 19.892C150.028 19.652 149.53 19.316 149.122 18.884C148.714 18.452 148.396 17.936 148.168 17.336C147.952 16.736 147.844 16.076 147.844 15.356C147.844 14.66 147.958 14.012 148.186 13.412C148.414 12.812 148.738 12.296 149.158 11.864C149.578 11.42 150.076 11.072 150.652 10.82C151.24 10.568 151.888 10.442 152.596 10.442C153.388 10.442 154.078 10.598 154.666 10.91C155.254 11.21 155.734 11.618 156.106 12.134C156.49 12.65 156.766 13.238 156.934 13.898C157.102 14.558 157.162 15.248 157.114 15.968H150.4ZM160.61 16.976C160.61 17.252 160.664 17.492 160.772 17.696C160.892 17.888 161.042 18.05 161.222 18.182C161.402 18.302 161.606 18.392 161.834 18.452C162.074 18.512 162.32 18.542 162.572 18.542C162.752 18.542 162.938 18.524 163.13 18.488C163.334 18.44 163.514 18.374 163.67 18.29C163.838 18.194 163.976 18.074 164.084 17.93C164.192 17.774 164.246 17.582 164.246 17.354C164.246 16.97 163.988 16.682 163.472 16.49C162.968 16.298 162.26 16.106 161.348 15.914C160.976 15.83 160.61 15.734 160.25 15.626C159.902 15.506 159.59 15.356 159.314 15.176C159.038 14.984 158.816 14.75 158.648 14.474C158.48 14.186 158.396 13.838 158.396 13.43C158.396 12.83 158.51 12.338 158.738 11.954C158.978 11.57 159.29 11.27 159.674 11.054C160.058 10.826 160.49 10.67 160.97 10.586C161.45 10.49 161.942 10.442 162.446 10.442C162.95 10.442 163.436 10.49 163.904 10.586C164.384 10.682 164.81 10.844 165.182 11.072C165.554 11.3 165.86 11.606 166.1 11.99C166.352 12.362 166.502 12.836 166.55 13.412H164.12C164.084 12.92 163.898 12.59 163.562 12.422C163.226 12.242 162.83 12.152 162.374 12.152C162.23 12.152 162.074 12.164 161.906 12.188C161.738 12.2 161.582 12.236 161.438 12.296C161.306 12.356 161.192 12.446 161.096 12.566C161 12.674 160.952 12.824 160.952 13.016C160.952 13.244 161.036 13.43 161.204 13.574C161.372 13.718 161.588 13.838 161.852 13.934C162.128 14.018 162.44 14.096 162.788 14.168C163.136 14.24 163.49 14.318 163.85 14.402C164.222 14.486 164.582 14.588 164.93 14.708C165.29 14.828 165.608 14.99 165.884 15.194C166.16 15.386 166.382 15.632 166.55 15.932C166.718 16.22 166.802 16.58 166.802 17.012C166.802 17.624 166.676 18.14 166.424 18.56C166.184 18.968 165.866 19.298 165.47 19.55C165.074 19.802 164.618 19.976 164.102 20.072C163.598 20.18 163.082 20.234 162.554 20.234C162.014 20.234 161.486 20.18 160.97 20.072C160.454 19.964 159.992 19.784 159.584 19.532C159.188 19.28 158.858 18.95 158.594 18.542C158.342 18.122 158.204 17.6 158.18 16.976H160.61Z" fill="#5A3F98"/>
<path d="M176.333 16.9997L179.666 13.6663L176.333 10.333" stroke="#5A3F98" stroke-width="1.25" stroke-linecap="round" stroke-linejoin="round"/>
</svg>
