<svg width="44" height="44" viewBox="0 0 44 44" fill="none" xmlns="http://www.w3.org/2000/svg">
<path d="M18.8746 8.22729C20.1321 5.67976 23.7648 5.67976 25.0223 8.22729L27.6247 13.4995C28.1236 14.5102 29.0875 15.2111 30.2028 15.3741L36.0281 16.2256C38.8387 16.6364 39.9589 20.0912 37.9241 22.0731L33.7143 26.1734C32.9058 26.961 32.5367 28.0961 32.7275 29.2085L33.7203 34.9971C34.2006 37.7976 31.261 39.9331 28.7462 38.6106L23.544 35.8748C22.5452 35.3495 21.3518 35.3495 20.3529 35.8748L15.1508 38.6106C12.6359 39.9331 9.69631 37.7976 10.1766 34.9972L11.1694 29.2085C11.3602 28.0961 10.9912 26.961 10.1826 26.1734L5.97283 22.0731C3.93803 20.0912 5.05822 16.6364 7.86883 16.2256L13.6941 15.3741C14.8094 15.2111 15.7733 14.5102 16.2722 13.4995L18.8746 8.22729Z" fill="#FFEC9D" stroke="#FFD420" stroke-width="4.1897" stroke-linecap="round" stroke-linejoin="round"/>
</svg>
