<svg width="43" height="43" viewBox="0 0 43 43" fill="none" xmlns="http://www.w3.org/2000/svg">
<path d="M30.4596 37.625V34.0417C30.4596 32.1409 29.7046 30.3181 28.3606 28.9741C27.0166 27.6301 25.1937 26.875 23.293 26.875H8.95964C7.05892 26.875 5.23605 27.6301 3.89204 28.9741C2.54803 30.3181 1.79297 32.1409 1.79297 34.0417V37.625" fill="#FFA97C"/>
<path d="M30.4596 37.625V34.0417C30.4596 32.1409 29.7046 30.3181 28.3606 28.9741C27.0166 27.6301 25.1937 26.875 23.293 26.875H8.95964C7.05892 26.875 5.23605 27.6301 3.89204 28.9741C2.54803 30.3181 1.79297 32.1409 1.79297 34.0417V37.625" stroke="#F37735" stroke-width="3.58333" stroke-linecap="round" stroke-linejoin="round"/>
<path d="M16.1237 19.7083C20.0817 19.7083 23.2904 16.4997 23.2904 12.5417C23.2904 8.58363 20.0817 5.375 16.1237 5.375C12.1657 5.375 8.95703 8.58363 8.95703 12.5417C8.95703 16.4997 12.1657 19.7083 16.1237 19.7083Z" fill="#FFA97C" stroke="#F37735" stroke-width="3.58333" stroke-linecap="round" stroke-linejoin="round"/>
<path d="M41.207 37.6245V34.0412C41.2058 32.4533 40.6773 30.9107 39.7045 29.6557C38.7316 28.4007 37.3695 27.5044 35.832 27.1074" fill="#FFA97C"/>
<path d="M41.207 37.6245V34.0412C41.2058 32.4533 40.6773 30.9107 39.7045 29.6557C38.7316 28.4007 37.3695 27.5044 35.832 27.1074" stroke="#F37735" stroke-width="3.58333" stroke-linecap="round" stroke-linejoin="round"/>
<path d="M28.668 5.60742C30.2095 6.00213 31.5759 6.89868 32.5517 8.15573C33.5274 9.41278 34.057 10.9588 34.057 12.5501C34.057 14.1414 33.5274 15.6875 32.5517 16.9445C31.5759 18.2016 30.2095 19.0981 28.668 19.4928" stroke="#F37735" stroke-width="3.58333" stroke-linecap="round" stroke-linejoin="round"/>
</svg>
