<svg width="26" height="26" viewBox="0 0 26 26" fill="none" xmlns="http://www.w3.org/2000/svg">
<g id="instagram">
<path id="Vector" d="M17.8678 2.65381H7.65158C4.83044 2.65381 2.54346 4.94079 2.54346 7.76193V17.9782C2.54346 20.7993 4.83044 23.0863 7.65158 23.0863H17.8678C20.689 23.0863 22.9759 20.7993 22.9759 17.9782V7.76193C22.9759 4.94079 20.689 2.65381 17.8678 2.65381Z" stroke="#5A3F98" stroke-width="1.22595" stroke-linecap="round" stroke-linejoin="round"/>
<path id="Vector_2" d="M16.8461 12.2268C16.9722 13.0771 16.8269 13.9454 16.4311 14.7084C16.0352 15.4713 15.4088 16.09 14.641 16.4765C13.8733 16.8629 13.0032 16.9974 12.1546 16.8608C11.3059 16.7243 10.522 16.3236 9.9142 15.7158C9.30641 15.1081 8.90574 14.3241 8.76919 13.4755C8.63263 12.6268 8.76714 11.7568 9.15358 10.989C9.54003 10.2212 10.1587 9.59486 10.9217 9.19898C11.6846 8.8031 12.553 8.65787 13.4032 8.78395C14.2705 8.91256 15.0734 9.31669 15.6934 9.93666C16.3133 10.5566 16.7175 11.3595 16.8461 12.2268Z" stroke="#5A3F98" stroke-width="1.22595" stroke-linecap="round" stroke-linejoin="round"/>
<path id="Vector_3" d="M18.3784 7.25146H18.3892" stroke="#5A3F98" stroke-width="1.22595" stroke-linecap="round" stroke-linejoin="round"/>
</g>
</svg>
