<svg width="25" height="25" viewBox="0 0 25 25" fill="none" xmlns="http://www.w3.org/2000/svg">
<g id="phone">
<path id="Vector" d="M22.9165 17.6253V20.7503C22.9177 21.0404 22.8582 21.3275 22.742 21.5933C22.6258 21.8591 22.4553 22.0978 22.2416 22.2939C22.0278 22.49 21.7754 22.6393 21.5006 22.7322C21.2258 22.8252 20.9346 22.8597 20.6457 22.8336C17.4403 22.4853 14.3613 21.39 11.6561 19.6357C9.13923 18.0364 7.00539 15.9025 5.40608 13.3857C3.64564 10.6682 2.55008 7.57422 2.20816 4.35443C2.18213 4.06638 2.21636 3.77606 2.30868 3.50196C2.401 3.22786 2.54938 2.97598 2.74438 2.76237C2.93937 2.54876 3.17671 2.37809 3.44128 2.26122C3.70585 2.14436 3.99185 2.08387 4.28108 2.0836H7.40608C7.91161 2.07862 8.40169 2.25764 8.785 2.58728C9.1683 2.91692 9.41866 3.37469 9.48941 3.87526C9.62131 4.87533 9.86592 5.85727 10.2186 6.80235C10.3587 7.17518 10.3891 7.58038 10.306 7.96993C10.2229 8.35948 10.0299 8.71705 9.74983 9.00026L8.42691 10.3232C9.90978 12.931 12.0691 15.0903 14.6769 16.5732L15.9998 15.2503C16.283 14.9702 16.6406 14.7772 17.0302 14.6941C17.4197 14.611 17.8249 14.6414 18.1977 14.7815C19.1428 15.1342 20.1248 15.3788 21.1248 15.5107C21.6308 15.5821 22.093 15.8369 22.4233 16.2268C22.7536 16.6167 22.9292 17.1144 22.9165 17.6253Z" stroke="#5A3F98" stroke-width="1.25" stroke-linecap="round" stroke-linejoin="round"/>
</g>
</svg>
