<svg width="26" height="26" viewBox="0 0 26 26" fill="none" xmlns="http://www.w3.org/2000/svg">
<g id="youtube">
<path id="Vector" d="M23.5655 7.1696C23.4441 6.68474 23.1969 6.2405 22.8489 5.88174C22.5009 5.52298 22.0644 5.26241 21.5835 5.12635C19.8263 4.69727 12.7975 4.69727 12.7975 4.69727C12.7975 4.69727 5.76876 4.69727 4.01156 5.16721C3.53063 5.30328 3.09412 5.56385 2.74613 5.92261C2.39813 6.28137 2.15097 6.72561 2.02961 7.21046C1.70802 8.99376 1.55071 10.8028 1.55967 12.6149C1.5482 14.4405 1.70552 16.2634 2.02961 18.0601C2.1634 18.5299 2.4161 18.9572 2.76329 19.3009C3.11047 19.6445 3.54041 19.8927 4.01156 20.0216C5.76876 20.4916 12.7975 20.4916 12.7975 20.4916C12.7975 20.4916 19.8263 20.4916 21.5835 20.0216C22.0644 19.8856 22.5009 19.625 22.8489 19.2662C23.1969 18.9075 23.4441 18.4632 23.5655 17.9784C23.8846 16.2085 24.0419 14.4133 24.0354 12.6149C24.0469 10.7892 23.8896 8.96633 23.5655 7.1696Z" stroke="#5A3F98" stroke-width="1.22595" stroke-linecap="round" stroke-linejoin="round"/>
<path id="Vector_2" d="M10.499 15.9558L16.3734 12.6151L10.499 9.27441V15.9558Z" stroke="#5A3F98" stroke-width="1.22595" stroke-linecap="round" stroke-linejoin="round"/>
</g>
</svg>
